<svg width="1024" height="873" viewBox="0 0 1024 873" fill="none" xmlns="http://www.w3.org/2000/svg">
<mask id="mask0_11_1514" style="mask-type:luminance" maskUnits="userSpaceOnUse" x="0" y="0" width="1024" height="873">
<path d="M382.185 872.296C367.858 872.296 353.751 870.138 340.256 865.885L338.434 865.309L339.802 863.98C353.13 851.01 369.905 839.379 388.316 830.34C404.404 822.441 421.368 816.706 437.809 813.58C426.211 811.854 414.627 809.652 403.28 807.019C387.303 803.247 371.338 798.504 355.809 792.924C353.448 795.068 350.73 797.301 347.906 799.405C330.091 813.485 307.716 820.927 283.204 820.93C269.704 820.93 256.008 818.708 242.494 814.331C229.244 810.038 216.806 803.883 205.525 796.035L203.953 794.945L205.661 794.081C231.18 781.218 262.134 774.133 292.824 774.133C300.102 774.133 307.268 774.542 314.22 775.351C293.286 765.152 273.059 753.175 253.997 739.69C249.343 736.364 245.704 733.691 242.299 731.086C231.249 736.174 219.037 739.509 206.927 740.741C203.299 741.181 199.561 741.403 195.836 741.406C177.873 741.406 158.975 736.157 141.183 726.229C124.796 717.086 109.845 704.367 97.9442 689.441L96.7285 687.918L98.6569 687.605C108.243 686.051 118.195 685.262 128.238 685.262C143.078 685.262 158.018 686.957 172.643 690.304C184.93 693.113 196.77 697.038 207.94 701.993C189.838 684.923 173.124 666.186 158.193 646.212C157.498 645.251 156.474 643.847 155.423 642.402C154.377 640.966 153.306 639.493 152.513 638.399C146.981 638.958 142.011 639.231 137.336 639.231C133.134 639.231 129.181 639.001 125.586 638.546C103.891 636.563 82.9299 627.018 64.9666 610.941C48.7277 596.406 35.3156 576.699 27.2002 555.451L26.5041 553.626L28.4395 553.914C65.0748 559.361 100.307 575.778 128.425 600.38C114.524 575.672 103.425 550.294 94.5892 523.037C81.0385 520.944 68.2723 516.205 56.6342 508.947C45.5205 502.018 35.6171 492.922 27.1985 481.912C11.0461 460.784 1.41962 434.016 0.0923682 406.54L0 404.626L1.73203 405.455C34.6368 421.207 63.9345 447.99 83.0782 479.604C77.7055 453.903 74.7088 427.389 74.1627 400.666L74.1742 400.664C74.1658 400.586 74.1608 400.502 74.1597 400.413L74.1066 395.717C71.259 394.252 68.2075 392.485 65.2395 390.586C57.8043 385.844 50.7226 380.034 44.7621 373.789C30.855 359.962 21.2151 340.811 16.884 318.403C12.9801 298.204 13.6241 276.193 18.6967 256.418L19.1779 254.544L20.5914 255.871C47.583 281.203 67.1089 314.711 76.0792 350.868C78.8077 322.794 84.349 294.984 92.5779 268.092C88.1377 263.698 81.8061 256.602 75.9401 247.013C64.2886 228.832 59.0556 206.487 60.819 182.41C62.4178 160.583 69.8452 137.938 81.7332 118.643L82.7519 116.992L83.7069 118.681C93.2867 135.645 100.213 154.289 104.293 174.099C107.848 191.362 109.085 208.74 107.985 225.862C119.007 200.05 132.676 175.21 148.684 151.915C147.092 148.902 145.709 145.947 144.359 142.663C134.273 119.976 133.254 94.3473 141.409 68.549C148.876 44.9262 163.671 22.7451 183.072 6.08917L184.535 4.83446L184.939 6.71652C192.592 42.3421 189.337 81.8409 176.07 116.249C189.509 100.511 203.903 85.9646 219.899 71.9417L223.46 68.8856C229.508 55.1937 238.338 42.3909 249.009 31.85C268.691 12.0028 298.407 0.149593 328.494 0.149593C334.539 0.149593 340.531 0.635941 346.306 1.59708L348.117 1.89643L347.052 3.38697C319.798 41.3895 277.059 69.8411 232.676 79.5359C216.95 92.9257 201.11 108.727 187.49 124.58C200.607 117.196 215.821 113.32 231.92 113.32C250.995 113.32 270.305 118.882 286.287 128.986L287.697 129.875L286.356 130.868C259.427 150.744 225.558 161.69 190.984 161.69C190.978 161.69 190.973 161.69 190.97 161.69C189.418 161.69 187.846 161.67 186.294 161.624C177.547 161.521 168.37 160.873 160.375 159.803C145.142 181.949 132.076 205.604 121.47 230.222C128.95 222.248 138.529 215.563 149.549 210.677C162.6 204.893 177.11 201.834 191.51 201.834C200.401 201.834 208.983 202.999 217.017 205.299L218.594 205.748L217.626 207.068C207.289 221.183 194.433 233.52 179.422 243.739C164.622 253.813 148.453 261.341 131.363 266.115C120.286 269.436 111.021 271.272 106.102 272.121C98.2638 297.715 92.9448 324.184 90.262 350.92C96.6832 337.528 107.55 325.283 121.473 315.896C137.44 305.131 156.04 298.97 173.85 298.55L175.475 298.509L174.963 300.049C168.147 320.59 156.675 339.571 140.862 356.468C126.323 372.005 108.131 385.498 88.2153 395.518C88.4504 422.646 91.2929 449.561 96.6729 475.647C98.9632 460.188 105.649 445.322 116.236 432.278C127.813 418.016 143.621 406.764 160.75 400.595L162.316 400.031L162.283 401.691C161.612 436.252 148.127 471.84 125.283 499.33C120.897 504.884 115.947 510.507 110.57 516.041L110.523 516.09L110.47 516.13C107.728 518.355 107.848 518.683 108.783 521.238C108.981 521.779 109.205 522.395 109.435 523.114C117.614 547.344 127.922 570.627 140.115 592.42C139.04 585.891 138.794 579.117 139.386 572.202C140.16 563.16 142.34 554.078 145.867 545.203C152.802 527.753 164.469 512.349 178.724 501.831L180.057 500.85L180.507 502.438C188.527 530.677 188.555 561.315 180.593 588.708C178.243 597.021 175.099 605.841 171.505 614.215C170.851 616.739 169.282 619.545 167.766 622.261C165.986 625.447 163.974 629.044 164.456 630.857C179.881 652.465 197.491 672.681 216.87 691.041C209.89 677.093 206.835 661.116 208.009 644.394C209.294 626.04 215.801 607.772 226.325 592.964L227.277 591.623L228.206 592.978C251.666 627.248 259.889 673.458 250.809 719.858C271.918 735.973 295.52 750.534 319.489 762.254C308.695 751.115 301.02 736.77 297.131 720.344C292.855 702.301 293.62 682.937 299.278 665.818L299.796 664.247L301.086 665.288C315.244 676.707 327.312 690.738 336.951 706.994C346.393 722.911 353.072 740.208 356.811 758.404C358.466 765.702 359.687 772.671 360.533 779.667C386.48 788.996 412.177 795.511 438.847 799.514C425.121 792.07 413.459 780.694 404.849 766.277C395.407 750.464 390.319 731.774 390.519 713.648L390.539 712.002L392.08 712.597C412.355 720.416 430.799 732.821 446.9 749.472C461.795 764.867 474.016 783.14 483.235 803.799C488.448 804.052 494.418 804.17 501.935 804.17C505.368 804.17 508.778 804.147 511.978 804.121C515.327 804.145 518.766 804.17 522.249 804.17C529.724 804.17 535.624 804.052 540.732 803.799C549.806 783.451 562.358 764.68 577.055 749.483C593.176 732.816 611.626 720.404 631.887 712.594L633.425 712.002L633.444 713.648C633.65 731.774 628.562 750.467 619.115 766.28C610.505 780.697 598.843 792.07 585.12 799.517C611.796 795.511 637.492 788.994 663.433 779.667C664.304 772.496 665.461 765.897 667.161 758.381C670.9 740.191 677.582 722.891 687.016 706.986C696.649 690.747 708.717 676.716 722.883 665.288L724.174 664.247L724.691 665.818C730.347 682.951 731.109 702.318 726.836 720.35C722.947 736.77 715.269 751.115 704.469 762.26C728.65 750.453 751.723 736.208 773.155 719.858C764.077 673.449 772.301 627.24 795.763 592.981L796.693 591.626L797.644 592.964C808.165 607.769 814.669 626.031 815.957 644.391C817.129 661.116 814.077 677.09 807.097 691.038C826.384 672.756 843.846 652.742 859.074 631.453L859.119 631.389L859.169 631.335C860.34 630.086 859.839 629.007 858.109 626.238C857.177 624.751 856.123 623.067 855.502 621.047C852.108 613.787 848.65 605.154 846.241 597.934C835.528 567.531 834.538 533.612 843.457 502.438L843.91 500.853L845.24 501.834C859.497 512.352 871.167 527.756 878.103 545.209C881.627 554.084 883.805 563.166 884.582 572.207C885.171 579.122 884.927 585.893 883.85 592.423C896.04 570.642 906.353 547.347 914.548 523.071C914.768 522.378 914.991 521.767 915.188 521.229C916.12 518.668 916.243 518.34 913.5 516.136L913.444 516.09L913.394 516.041C907.991 510.476 903.042 504.853 898.68 499.325C887.628 486.093 878.417 470.3 872.044 453.653C865.559 436.709 861.973 418.738 861.673 401.685L861.642 400.028L863.205 400.592C880.342 406.764 896.154 418.016 907.73 432.278C918.315 445.316 925 460.182 927.292 475.647C932.681 449.518 935.521 422.606 935.749 395.518C915.811 385.464 897.62 371.979 883.107 356.486C867.27 339.576 855.808 320.59 849.045 300.049L848.539 298.512L850.161 298.55C867.951 298.973 886.543 305.136 902.514 315.91C916.432 325.3 927.292 337.536 933.705 350.915C931.023 324.184 925.701 297.718 917.864 272.121C912.943 271.272 903.677 269.436 892.577 266.11C875.454 261.31 859.28 253.779 844.528 243.733C829.566 233.546 816.72 221.212 806.343 207.068L805.375 205.751L806.949 205.299C814.978 202.999 823.558 201.831 832.451 201.831C846.853 201.831 861.367 204.89 874.422 210.677C884.907 215.327 894.087 221.601 901.39 229.065C899.239 224.484 897.109 219.604 894.902 214.553C885.814 193.736 875.518 170.162 859.578 160.286C852.985 161.049 845.02 161.535 837.654 161.627C836.121 161.67 834.546 161.693 832.994 161.693C798.39 161.693 764.517 150.744 737.616 130.862L736.275 129.872L737.685 128.983C753.665 118.882 772.971 113.323 792.044 113.323C808.135 113.323 823.335 117.187 836.443 124.563C822.398 108.218 807.907 93.7775 791.285 79.5359C769.363 74.6957 747.358 65.1935 727.632 52.0484C707.925 38.9176 690.39 22.0918 676.92 3.38697L675.86 1.91655L677.649 1.59708C683.633 0.538101 689.789 -2.36043e-05 695.951 -2.36043e-05C706.901 -2.36043e-05 717.906 1.66909 728.655 4.96115C739.215 8.19277 749.28 12.9092 758.572 18.9811C777.745 31.5134 792.244 48.7678 800.518 68.8971C817.721 83.602 833.278 99.1473 847.897 116.255C834.621 81.8467 831.364 42.3421 839.028 6.71652L839.434 4.83446L840.894 6.08917C860.296 22.7451 875.092 44.9261 882.559 68.5461C890.716 94.3472 889.695 119.976 879.605 142.666C878.236 145.993 876.89 148.873 875.282 151.915C891.292 175.216 904.965 200.058 915.984 225.865C914.885 208.709 916.12 191.322 919.675 174.073C923.751 154.304 930.678 135.665 940.264 118.675L941.219 116.983L942.24 118.638C954.124 137.953 961.549 160.6 963.148 182.41C964.912 206.481 959.679 228.827 948.012 247.031C942.159 256.605 935.827 263.701 931.387 268.092C939.613 294.97 945.155 322.771 947.887 350.854C952.021 334.149 958.447 317.936 967.038 302.564C976.858 284.99 989.076 269.284 1003.35 255.879L1004.76 254.553L1005.24 256.429C1010.34 276.242 1011 298.253 1007.1 318.403C1002.77 340.739 993.126 359.893 979.197 373.798C973.339 379.936 966.064 385.904 958.728 390.586C955.715 392.517 952.736 394.241 949.862 395.717L949.806 400.646C949.256 427.397 946.257 453.918 940.89 479.598C960.036 447.975 989.337 421.193 1022.24 405.452L1024 404.612L1023.88 406.548C1022.63 427.216 1016.67 448.398 1007.1 466.2C996.415 486.082 981.492 501.503 963.947 510.798L963.913 510.815L963.877 510.829C950.199 516.947 942.006 519.759 936.587 521.621C932.261 523.106 930.091 523.851 928.864 525.045C927.668 526.205 927.12 528.087 926.024 531.836C924.305 537.724 921.105 548.682 911.485 569.073C906.664 579.626 901.22 590.316 895.567 600.357C923.687 575.764 958.906 559.358 995.527 553.914L997.441 553.632L996.771 555.439C988.291 578.322 973.405 599.231 954.858 614.316C934.709 630.699 911.563 639.361 887.925 639.363C887.923 639.363 887.917 639.363 887.914 639.363C885.853 639.363 883.758 639.297 881.691 639.162C878.47 639.064 876.297 638.802 874.711 638.609C873.782 638.497 873.048 638.411 872.508 638.411C871.331 638.411 871.078 638.656 868.641 642.166C867.901 643.228 866.983 644.552 865.795 646.181C850.848 666.175 834.132 684.92 816.024 701.993C827.194 697.038 839.033 693.115 851.321 690.304C865.945 686.957 880.887 685.262 895.726 685.262C905.771 685.262 915.725 686.051 925.312 687.605L927.237 687.918L926.027 689.441C914.12 704.422 899.092 717.178 882.568 726.329C864.733 736.208 845.76 741.429 827.697 741.431C822.414 741.431 817.137 740.988 812.01 740.113C797.644 738.021 791.19 735.003 787.334 733.198C785.379 732.283 784.196 731.731 783.003 731.731C780.574 731.731 777.214 734.174 768.234 740.703C766.445 742.004 764.436 743.466 762.163 745.103L762.133 745.124C745.063 756.614 727.865 766.539 709.761 775.348C716.696 774.539 723.854 774.13 731.123 774.13C746.251 774.13 761.504 775.857 776.457 779.261C791.543 782.697 805.623 787.684 818.297 794.081L820.008 794.942L818.436 796.035C807.144 803.886 794.706 810.044 781.462 814.334C767.955 818.714 754.268 820.933 740.779 820.933C716.279 820.933 693.901 813.488 676.061 799.405C673.242 797.304 670.522 795.074 668.154 792.924C652.631 798.504 636.669 803.247 620.695 807.016C609.345 809.652 597.761 811.854 586.157 813.58C602.596 816.703 619.557 822.438 635.65 830.337C654.064 839.382 670.842 851.013 684.167 863.98L685.522 865.295L683.722 865.882C672.146 869.649 654.982 872.178 641.014 872.178C640.416 872.178 639.826 872.173 639.245 872.164H638.966C614.449 872.164 590.481 865.019 573.202 852.561C560.525 843.767 549.197 831.459 541.257 817.862C536.831 818.084 531.034 818.173 526.324 818.245L524.566 818.274C522.112 818.234 519.333 818.213 515.825 818.213C513.555 818.213 511.246 818.222 508.948 818.231C506.664 818.236 504.386 818.245 502.166 818.245C499.704 818.245 497.612 818.234 495.77 818.216L488.582 818.093C488.509 818.093 488.434 818.095 488.362 818.095C487.285 818.095 486.381 818.006 485.583 817.929C484.996 817.871 484.49 817.819 484.05 817.819C483.104 817.819 482.214 817.819 480.865 820.878L480.837 820.941L480.801 821.005C470.769 837.779 456.442 850.826 438.215 859.787C421.574 867.968 402.198 872.293 382.185 872.296Z" fill="white"/>
</mask>
<g mask="url(#mask0_11_1514)">
<path fill-rule="evenodd" clip-rule="evenodd" d="M511.978 818.22V804.121L512.779 804.127C515.875 804.148 519.043 804.17 522.249 804.17C529.724 804.17 535.624 804.052 540.732 803.799C549.806 783.451 562.358 764.68 577.055 749.483C593.176 732.816 611.626 720.404 631.887 712.594L633.425 712.002L633.444 713.648C633.65 731.774 628.562 750.467 619.115 766.28C610.505 780.697 598.843 792.07 585.12 799.517C611.796 795.511 637.492 788.994 663.433 779.667C664.304 772.496 665.461 765.897 667.161 758.381C670.9 740.191 677.582 722.891 687.016 706.986C696.649 690.747 708.717 676.716 722.883 665.288L724.174 664.247L724.691 665.818C730.347 682.951 731.109 702.318 726.836 720.35C722.947 736.77 715.269 751.115 704.469 762.26C728.65 750.453 751.723 736.208 773.155 719.858C764.077 673.449 772.301 627.24 795.763 592.981L796.693 591.626L797.644 592.964C808.165 607.769 814.669 626.031 815.957 644.391C817.128 661.116 814.077 677.09 807.097 691.038C826.384 672.756 843.846 652.742 859.074 631.453L859.119 631.389L859.169 631.335C860.34 630.086 859.839 629.007 858.109 626.238C857.177 624.751 856.123 623.067 855.502 621.047C852.108 613.787 848.65 605.154 846.241 597.934C835.528 567.531 834.538 533.612 843.457 502.438L843.91 500.853L845.24 501.834C859.497 512.352 871.167 527.756 878.103 545.209C881.627 554.084 883.805 563.166 884.582 572.207C885.171 579.122 884.926 585.893 883.85 592.423C896.04 570.642 906.353 547.347 914.548 523.071C914.768 522.378 914.991 521.767 915.188 521.229L915.191 521.222C916.12 518.668 916.24 518.338 913.5 516.136L913.444 516.09L913.394 516.041C907.991 510.476 903.042 504.853 898.68 499.325C887.628 486.093 878.417 470.3 872.044 453.653C865.559 436.709 861.973 418.738 861.673 401.685L861.642 400.028L863.205 400.592C880.342 406.764 896.154 418.016 907.73 432.278C918.315 445.316 925 460.182 927.292 475.647C932.681 449.518 935.521 422.606 935.749 395.518C915.811 385.464 897.62 371.979 883.107 356.486C867.27 339.576 855.808 320.59 849.045 300.049L848.539 298.512L850.161 298.55C867.951 298.973 886.543 305.137 902.514 315.911C916.432 325.3 927.292 337.536 933.705 350.915C931.023 324.184 925.701 297.718 917.864 272.121C912.943 271.272 903.677 269.436 892.577 266.11C875.454 261.31 859.28 253.779 844.528 243.733C829.566 233.546 816.72 221.212 806.343 207.068L805.375 205.751L806.949 205.299C814.978 202.999 823.558 201.831 832.451 201.831C846.853 201.831 861.367 204.89 874.422 210.677C884.907 215.327 894.087 221.601 901.39 229.065C899.255 224.517 897.139 219.674 894.95 214.662L894.903 214.553C885.814 193.736 875.518 170.162 859.578 160.286C852.985 161.049 845.02 161.535 837.654 161.627C836.121 161.67 834.546 161.693 832.994 161.693C798.39 161.693 764.517 150.744 737.616 130.862L736.275 129.872L737.685 128.983C753.665 118.882 772.971 113.323 792.044 113.323C808.135 113.323 823.335 117.187 836.443 124.563C822.397 108.218 807.907 93.7775 791.285 79.5359C769.363 74.6957 747.358 65.1936 727.632 52.0484C707.925 38.9176 690.39 22.0919 676.92 3.38701L675.86 1.91656L677.649 1.59708C683.633 0.538099 689.789 -8.45767e-06 695.951 -8.45767e-06C706.901 -8.45767e-06 717.906 1.66913 728.655 4.96118C739.215 8.1928 749.28 12.9093 758.572 18.9812C777.745 31.5134 792.244 48.7678 800.518 68.8971C817.721 83.602 833.278 99.1473 847.896 116.255C834.621 81.8467 831.364 42.3421 839.028 6.71655L839.434 4.83448L840.894 6.08918C860.296 22.7451 875.093 44.9262 882.559 68.5461C890.716 94.3472 889.695 119.976 879.605 142.666C878.236 145.993 876.89 148.873 875.282 151.915C891.292 175.216 904.965 200.058 915.984 225.865C914.885 208.709 916.12 191.322 919.675 174.073C923.751 154.304 930.678 135.665 940.264 118.675L941.219 116.983L942.24 118.638C954.124 137.953 961.549 160.6 963.148 182.41C964.912 206.481 959.679 228.827 948.012 247.031C942.159 256.605 935.827 263.701 931.387 268.092C939.613 294.97 945.155 322.771 947.887 350.854C952.021 334.149 958.447 317.936 967.037 302.564C976.858 284.99 989.076 269.284 1003.35 255.879L1004.76 254.553L1005.24 256.429C1010.34 276.242 1011 298.253 1007.1 318.403C1002.77 340.739 993.126 359.893 979.197 373.798C973.339 379.936 966.064 385.904 958.728 390.586C955.715 392.517 952.736 394.241 949.862 395.717L949.806 400.646C949.256 427.397 946.257 453.918 940.89 479.598C960.036 447.975 989.337 421.193 1022.24 405.452L1024 404.612L1023.88 406.548C1022.63 427.216 1016.67 448.398 1007.1 466.2C996.415 486.082 981.492 501.503 963.947 510.798L963.913 510.815L963.877 510.829C950.23 516.933 942.043 519.746 936.624 521.608L936.587 521.621C932.261 523.106 930.091 523.851 928.864 525.045C927.671 526.202 927.123 528.077 926.032 531.808L926.024 531.836C924.305 537.724 921.105 548.682 911.485 569.073C906.664 579.626 901.22 590.316 895.567 600.357C923.687 575.764 958.906 559.358 995.527 553.914L997.441 553.632L996.771 555.439C988.291 578.322 973.405 599.231 954.858 614.316C934.709 630.699 911.563 639.361 887.925 639.363H887.914C885.853 639.363 883.758 639.297 881.691 639.162C878.47 639.064 876.297 638.802 874.711 638.609C873.782 638.497 873.048 638.411 872.508 638.411C871.331 638.411 871.078 638.656 868.641 642.166L868.477 642.402C867.766 643.422 866.897 644.67 865.795 646.181C850.848 666.175 834.132 684.92 816.024 701.993C827.194 697.038 839.033 693.115 851.321 690.304C865.946 686.957 880.887 685.262 895.726 685.262C905.771 685.262 915.725 686.051 925.312 687.605L927.237 687.918L926.027 689.441C914.12 704.422 899.092 717.178 882.568 726.329C864.733 736.208 845.76 741.429 827.697 741.431C822.414 741.431 817.137 740.988 812.01 740.113C797.644 738.021 791.19 735.003 787.334 733.198C785.379 732.283 784.196 731.731 783.003 731.731C780.574 731.731 777.214 734.174 768.234 740.703L767.842 740.988C766.153 742.217 764.272 743.584 762.164 745.103L762.133 745.124C745.063 756.614 727.865 766.539 709.761 775.348C716.696 774.539 723.854 774.13 731.123 774.13C746.251 774.13 761.504 775.857 776.457 779.261C791.543 782.697 805.623 787.684 818.297 794.081L820.008 794.942L818.436 796.035C807.144 803.886 794.706 810.044 781.462 814.334C767.955 818.714 754.268 820.933 740.779 820.933C716.279 820.933 693.901 813.488 676.06 799.405C673.242 797.304 670.522 795.074 668.154 792.924C652.631 798.504 636.669 803.247 620.695 807.016C609.345 809.652 597.761 811.854 586.157 813.58C602.596 816.703 619.557 822.438 635.65 830.337C654.064 839.382 670.842 851.013 684.167 863.98L685.522 865.295L683.722 865.882C672.146 869.649 654.982 872.178 641.014 872.178C640.416 872.178 639.826 872.173 639.245 872.164H638.966C614.449 872.164 590.481 865.019 573.202 852.561C560.525 843.767 549.197 831.459 541.257 817.862C536.831 818.084 531.034 818.173 526.324 818.245L524.566 818.274C522.112 818.234 519.333 818.213 515.825 818.213C514.552 818.213 513.267 818.216 511.978 818.22Z" fill="#F9A823"/>
<path d="M382.185 872.296C367.858 872.296 353.751 870.138 340.256 865.885L338.434 865.309L339.802 863.98C353.13 851.01 369.905 839.379 388.316 830.34C404.404 822.441 421.368 816.706 437.809 813.58C426.211 811.854 414.627 809.652 403.28 807.019C387.303 803.247 371.338 798.504 355.809 792.924C353.448 795.068 350.73 797.301 347.906 799.405C330.091 813.485 307.716 820.927 283.204 820.93C269.704 820.93 256.008 818.708 242.494 814.331C229.244 810.038 216.806 803.883 205.525 796.035L203.953 794.945L205.661 794.081C231.18 781.218 262.134 774.133 292.824 774.133C300.102 774.133 307.268 774.542 314.22 775.351C293.286 765.152 273.059 753.175 253.997 739.69C249.343 736.364 245.704 733.691 242.299 731.086C231.249 736.174 219.037 739.509 206.927 740.741C203.299 741.181 199.561 741.403 195.836 741.406C177.873 741.406 158.975 736.157 141.183 726.229C124.796 717.086 109.845 704.367 97.9442 689.441L96.7285 687.918L98.6569 687.605C108.243 686.051 118.195 685.262 128.238 685.262C143.078 685.262 158.018 686.957 172.643 690.304C184.93 693.113 196.77 697.038 207.94 701.993C189.838 684.923 173.124 666.186 158.194 646.212C157.498 645.251 156.474 643.847 155.423 642.402C154.377 640.966 153.306 639.493 152.513 638.399C146.981 638.958 142.011 639.231 137.336 639.231C133.134 639.231 129.181 639.001 125.586 638.546C103.891 636.563 82.93 627.018 64.9666 610.941C48.7277 596.406 35.3156 576.699 27.2002 555.451L26.5041 553.626L28.4395 553.914C65.0748 559.361 100.307 575.778 128.425 600.38C114.524 575.672 103.425 550.294 94.5892 523.037C81.0385 520.944 68.2723 516.205 56.6342 508.947C45.5204 502.018 35.6171 492.922 27.1985 481.912C11.0461 460.784 1.41962 434.016 0.0923682 406.54L0 404.626L1.73203 405.455C34.6368 421.207 63.9345 447.99 83.0782 479.604C77.7055 453.903 74.7088 427.389 74.1627 400.667L74.1742 400.664C74.1658 400.586 74.1608 400.502 74.1597 400.413L74.1065 395.717C71.259 394.252 68.2075 392.485 65.2395 390.586C57.8043 385.844 50.7226 380.034 44.7621 373.789C30.855 359.962 21.2151 340.811 16.884 318.403C12.9801 298.204 13.6241 276.193 18.6967 256.418L19.1779 254.544L20.5914 255.871C47.583 281.203 67.1089 314.711 76.0792 350.868C78.8077 322.794 84.349 294.984 92.5779 268.092C88.1377 263.698 81.8061 256.602 75.9401 247.013C64.2886 228.832 59.0556 206.487 60.819 182.41C62.4178 160.583 69.8452 137.938 81.7332 118.643L82.7519 116.992L83.7069 118.681C93.2867 135.645 100.213 154.289 104.293 174.099C107.848 191.362 109.085 208.74 107.985 225.863C119.007 200.05 132.676 175.21 148.684 151.915C147.092 148.902 145.709 145.947 144.359 142.663C134.273 119.976 133.254 94.3473 141.409 68.549C148.876 44.9262 163.671 22.7451 183.072 6.08918L184.535 4.83448L184.939 6.71655C192.592 42.3421 189.337 81.8409 176.07 116.249C189.509 100.511 203.903 85.9646 219.899 71.9417L223.46 68.8856C229.508 55.1937 238.338 42.391 249.009 31.8501C268.691 12.0028 298.407 0.149604 328.494 0.149604C334.539 0.149604 340.531 0.635939 346.306 1.59708L348.117 1.89647L347.052 3.38701C319.798 41.3895 277.059 69.8411 232.676 79.5359C216.95 92.9257 201.11 108.727 187.49 124.58C200.607 117.196 215.821 113.32 231.92 113.32C250.995 113.32 270.305 118.882 286.287 128.986L287.697 129.875L286.356 130.868C259.427 150.744 225.558 161.69 190.984 161.69H190.97C189.418 161.69 187.846 161.67 186.294 161.624C177.547 161.521 168.37 160.873 160.374 159.803C145.142 181.949 132.076 205.604 121.47 230.222C128.95 222.248 138.529 215.563 149.549 210.677C162.6 204.893 177.11 201.834 191.51 201.834C200.401 201.834 208.983 202.999 217.017 205.299L218.594 205.748L217.626 207.068C207.289 221.183 194.433 233.52 179.422 243.739C164.622 253.813 148.453 261.341 131.363 266.115C120.286 269.436 111.021 271.272 106.102 272.121C98.2638 297.715 92.9448 324.184 90.262 350.92C96.6832 337.528 107.55 325.283 121.473 315.896C137.44 305.131 156.04 298.97 173.85 298.55L175.475 298.509L174.963 300.049C168.147 320.59 156.675 339.571 140.862 356.468C126.323 372.005 108.131 385.498 88.2153 395.518C88.4504 422.646 91.2929 449.561 96.6729 475.647C98.9632 460.188 105.649 445.322 116.236 432.278C127.813 418.016 143.621 406.764 160.75 400.595L162.316 400.031L162.283 401.691C161.612 436.252 148.127 471.84 125.283 499.33C120.897 504.884 115.947 510.507 110.57 516.041L110.523 516.09L110.47 516.13C107.728 518.355 107.848 518.683 108.783 521.238C108.981 521.779 109.205 522.395 109.435 523.114C117.614 547.344 127.922 570.627 140.115 592.42C139.04 585.891 138.794 579.117 139.386 572.202C140.16 563.16 142.34 554.078 145.867 545.203C152.802 527.753 164.469 512.349 178.724 501.831L180.057 500.85L180.507 502.438C188.527 530.677 188.555 561.315 180.593 588.708C178.243 597.021 175.099 605.841 171.505 614.215C170.854 616.729 169.295 619.522 167.785 622.228L167.766 622.261C165.986 625.447 163.974 629.044 164.456 630.857C179.881 652.465 197.491 672.681 216.87 691.041C209.89 677.093 206.835 661.116 208.009 644.394C209.294 626.04 215.801 607.772 226.325 592.964L227.277 591.623L228.206 592.978C251.666 627.248 259.889 673.458 250.809 719.858C271.918 735.973 295.52 750.534 319.489 762.254C308.695 751.115 301.02 736.77 297.131 720.344C292.855 702.301 293.62 682.937 299.278 665.818L299.796 664.247L301.086 665.288C315.244 676.707 327.312 690.738 336.951 706.994C346.393 722.911 353.072 740.208 356.811 758.404C358.466 765.702 359.687 772.671 360.533 779.667C386.48 788.996 412.177 795.511 438.847 799.514C425.121 792.07 413.459 780.694 404.849 766.277C395.407 750.464 390.319 731.774 390.519 713.648L390.539 712.002L392.08 712.597C412.355 720.416 430.799 732.821 446.9 749.472C461.795 764.867 474.016 783.14 483.235 803.799C488.448 804.052 494.418 804.17 501.935 804.17C505.368 804.17 508.778 804.147 511.978 804.121V818.22L508.948 818.231C506.664 818.236 504.386 818.245 502.166 818.245C499.704 818.245 497.612 818.234 495.77 818.216L488.582 818.093C488.509 818.093 488.434 818.095 488.362 818.095C487.298 818.095 486.402 818.008 485.61 817.931L485.583 817.929L485.503 817.921C484.95 817.866 484.47 817.819 484.05 817.819C483.104 817.819 482.214 817.819 480.865 820.878L480.837 820.941L480.801 821.005C470.769 837.779 456.442 850.826 438.215 859.787C421.574 867.968 402.198 872.293 382.185 872.296Z" fill="#F9DE47"/>
</g>
</svg>
